<svg width="176" height="102" viewBox="0 0 176 102" fill="none" xmlns="http://www.w3.org/2000/svg">
<path d="M0.78139 3.73122C0.709468 2.84612 1.36889 2.07055 2.25389 1.9988C3.13889 1.92704 3.91447 2.58631 3.98639 3.47141L0.78139 3.73122ZM4.60389 25.7413L3.00212 25.8828L3.002 25.8817L4.60389 25.7413ZM4.82235 33.1354L3.58901 34.1668L3.58861 34.1662L4.82235 33.1354ZM12.0096 31.7197L12.6509 33.1943L12.65 33.1944L12.0096 31.7197ZM29.1463 22.9838L28.3733 21.5741L28.3741 21.5741L29.1463 22.9838ZM34.0183 20.1635L32.4124 20.0857L32.4125 20.0856L34.0183 20.1635ZM27.6637 14.6732L28.5133 13.3083L28.5133 13.3083L27.6637 14.6732ZM3.10427 3.416C2.25585 3.15428 1.78034 2.25434 2.0422 1.40592C2.30407 0.557516 3.20395 0.081848 4.05238 0.343563L3.10427 3.416ZM15.8756 26.0771C15.5918 25.2361 16.0429 24.3235 16.8842 24.0394C17.7255 23.7552 18.6381 24.2068 18.9224 25.0481L15.8756 26.0771ZM66.7795 84.4329L67.3652 82.9361L66.7795 84.4329ZM104.559 70.9713L106.164 70.8807L106.164 70.8807L104.559 70.9713ZM80.3833 79.7428L78.8508 80.2286L80.3833 79.7428ZM114.797 99.564L114.825 101.172L114.825 101.172L114.797 99.564ZM173.001 66.7184C173.518 65.9967 174.522 65.831 175.244 66.3483C175.966 66.8656 176.132 67.87 175.614 68.5917L173.001 66.7184ZM3.98639 3.47141C4.28447 7.14555 4.67515 10.8137 5.0738 14.5014C5.47231 18.183 5.87938 21.887 6.20517 25.6006L3.002 25.8817C2.68002 22.2077 2.27663 18.5398 1.87697 14.8474C1.47861 11.1617 1.08343 7.45383 0.78139 3.73122L3.98639 3.47141ZM6.20511 25.5994C6.25107 26.1141 6.22069 26.8226 6.18504 27.4864C6.14581 28.209 6.09476 28.9495 6.06297 29.7081C6.03169 30.462 6.02424 31.1347 6.06497 31.6558C6.08528 31.9164 6.11451 32.0948 6.1422 32.2037C6.17659 32.3396 6.17951 32.2523 6.0561 32.1046L3.58861 34.1662C3.26051 33.7736 3.10774 33.3193 3.02518 32.9941C2.9359 32.642 2.88685 32.2651 2.85912 31.9055C2.80312 31.1857 2.81735 30.3559 2.85032 29.5734C2.88274 28.7957 2.93907 27.9663 2.97449 27.3133C3.01288 26.6011 3.0239 26.128 3.00212 25.8828L6.20511 25.5994ZM6.0557 32.104C5.83067 31.8352 5.66147 31.9817 6.19329 31.957C6.63248 31.9372 7.23668 31.809 7.94314 31.5925C9.34363 31.1629 10.7495 30.5144 11.3692 30.245L12.65 33.1944C12.1186 33.4255 10.5041 34.1704 8.88546 34.6665C8.08232 34.9129 7.1776 35.1307 6.34141 35.1694C5.59836 35.2036 4.38724 35.1212 3.58901 34.1668L6.0557 32.104ZM11.3689 30.2454C17.1947 27.7126 22.7212 24.6731 28.3733 21.5741L29.9193 24.3936C24.2922 27.4789 18.6352 30.5926 12.6509 33.1943L11.3689 30.2454ZM28.3741 21.5741C28.5939 21.4532 29.0503 21.2415 29.494 21.0323C29.9776 20.8044 30.5439 20.5349 31.0865 20.2587C31.6393 19.9778 32.1214 19.7125 32.4513 19.495C32.5304 19.4428 32.5929 19.3988 32.6403 19.3629C32.6638 19.3454 32.6811 19.3309 32.694 19.3202C32.7 19.3148 32.7052 19.311 32.7084 19.308C32.7116 19.305 32.7132 19.3037 32.7131 19.3037C32.7131 19.3039 32.7106 19.3056 32.7068 19.3095C32.7031 19.3135 32.6971 19.3199 32.6896 19.3291C32.6748 19.3456 32.6485 19.3785 32.617 19.4266C32.5675 19.5033 32.4292 19.735 32.4124 20.0857L35.6241 20.2414C35.6032 20.6763 35.4284 21.001 35.3136 21.1779C35.1908 21.3674 35.0512 21.5166 34.9399 21.6233C34.718 21.8365 34.456 22.0252 34.2192 22.1808C33.7353 22.4994 33.1242 22.8298 32.5448 23.1246C31.9558 23.4246 31.3513 23.7114 30.8648 23.9406C30.339 24.1889 30.0266 24.3351 29.9191 24.394L28.3741 21.5741ZM32.4125 20.0856C32.4169 19.997 32.388 19.7794 32.0665 19.3948C31.7446 19.0095 31.2409 18.5957 30.5937 18.1682C29.9578 17.748 29.2576 17.3621 28.5869 17.006C27.9617 16.6741 27.2712 16.3227 26.814 16.0381L28.5133 13.3083C28.846 13.5154 29.3607 13.7763 30.0945 14.1658C30.7828 14.5312 31.5959 14.9763 32.3667 15.4856C33.1263 15.9875 33.9232 16.6021 34.5337 17.3324C35.1446 18.0634 35.6823 19.0498 35.624 20.2415L32.4125 20.0856ZM26.814 16.0381C19.8223 11.686 10.7028 5.76013 3.10427 3.416L4.05238 0.343563C12.152 2.84225 21.7068 9.07151 28.5133 13.3083L26.814 16.0381ZM18.9224 25.0481C22.5922 35.9101 29.1698 48.244 37.6335 58.9509C46.1086 69.6715 56.3731 78.6342 67.3652 82.9361L66.1934 85.9302C54.4773 81.3454 43.7836 71.9159 35.1107 60.9449C26.4269 49.9595 19.6682 37.3014 15.8756 26.0771L18.9224 25.0481ZM67.3652 82.9361C70.9882 84.3536 77.2391 85.2595 83.5964 84.8826L83.7868 88.0923C77.1086 88.4887 70.3662 87.5634 66.1934 85.9302L67.3652 82.9361ZM83.5964 84.8826C88.8188 84.573 93.8847 83.4096 97.5188 81.1503C101.062 78.9476 103.218 75.7435 102.954 71.0618L106.164 70.8807C106.505 76.931 103.581 81.1675 99.2165 83.8811C94.9424 86.5383 89.2722 87.7671 83.7868 88.0923L83.5964 84.8826ZM102.954 71.0619C102.712 66.7783 100.98 64.523 98.88 63.4795C96.6769 62.3847 93.689 62.4318 90.6795 63.5748C84.5855 65.8893 79.6506 72.11 81.9157 79.2571L78.8508 80.2286C75.8826 70.864 82.5019 63.2409 89.5376 60.5688C93.093 59.2184 97.0627 58.9858 100.311 60.5999C103.662 62.2651 105.872 65.7062 106.164 70.8807L102.954 71.0619ZM81.9158 79.257C82.6633 81.6151 83.7151 83.7111 85.0104 85.5679L82.3727 87.4073C80.8926 85.2853 79.6963 82.8967 78.8508 80.2286L81.9158 79.257ZM85.0104 85.5679C91.2445 94.5055 103.352 98.1556 114.769 97.9566L114.825 101.172C102.906 101.38 89.4862 97.605 82.3727 87.4073L85.0104 85.5679ZM114.768 97.9565C139.133 97.531 158.872 86.4304 173.001 66.7184L175.614 68.5917C160.934 89.0735 140.273 100.727 114.825 101.172L114.768 97.9565Z" fill="white"/>
</svg>
